<svg xmlns="http://www.w3.org/2000/svg" viewBox="0 0 540 540"><defs><style>.cls-1{fill:#0071bc;}.cls-2,.cls-4{fill:#29abe2;}.cls-2{stroke:#fff;stroke-miterlimit:10;stroke-width:10px;}.cls-3{fill:#fff;}.cls-5{fill:#e6e6e6;}</style></defs><title>Asset 3</title><g id="Layer_2" data-name="Layer 2"><g id="Layer_1-2" data-name="Layer 1"><circle class="cls-1" cx="270" cy="270" r="270"/><path class="cls-2" d="M433.34,401.35l-12.93-24.72A117.75,117.75,0,0,1,407,322.06V217.16C407,151,360.31,95.32,298.48,82.36a26.32,26.32,0,0,0,.46-4.86c0-15.46-13.43-28-30-28s-30,12.54-30,28a26.32,26.32,0,0,0,.61,5.66A136,136,0,0,0,135,215.5v79.69a243.14,243.14,0,0,1-24.34,106l-.28.57a9.89,9.89,0,0,0,8.9,14.2H424.47A10,10,0,0,0,433.34,401.35Z"/><path class="cls-3" d="M442,409c0,25.13-80.08,45-169,45s-171-19.87-171-45,82.08-46,171-46S442,383.87,442,409Z"/><circle class="cls-1" cx="270.23" cy="217.86" r="26.86"/><path class="cls-1" d="M247.65,270.63,230.71,383.57a23.76,23.76,0,0,0,5.46,19l25.57,29.8a11,11,0,0,0,16.57,0l25.76-29.69a23.76,23.76,0,0,0,5.51-19.38L291.24,270.48A12.48,12.48,0,0,0,278.92,260H260A12.48,12.48,0,0,0,247.65,270.63Z"/><path class="cls-4" d="M236,101s-68,35-71,101"/><path class="cls-5" d="M236,101c-3.67,4.45-7.28,8.5-10.82,12.54l-10.42,11.84c-6.79,7.79-13.31,15.44-19.27,23.38-1.53,2-2.94,4-4.42,6s-2.85,4-4.18,6.11-2.67,4.15-4,6.23-2.61,4.24-3.8,6.43-2.42,4.4-3.68,6.64l-1.74,3.43-.91,1.73-.82,1.77c-2.43,4.71-4.33,9.68-6.89,14.92-.47-1.36-.83-2.75-1.2-4.14l-.5-2.11c-.14-.7-.22-1.41-.33-2.12-.22-1.42-.37-2.85-.54-4.29s-.1-2.86-.15-4.31c0-.72,0-1.45,0-2.17l.12-2.16c.1-1.44.17-2.9.36-4.34a72.73,72.73,0,0,1,1.61-8.56,81.46,81.46,0,0,1,2.54-8.36c1.08-2.69,2.14-5.43,3.48-8s2.74-5.12,4.21-7.63l2.39-3.62c.8-1.21,1.69-2.34,2.55-3.5a99.11,99.11,0,0,1,25-23.22,92.65,92.65,0,0,1,15-7.92,77.59,77.59,0,0,1,8-2.81A47.24,47.24,0,0,1,236,101Z"/></g></g></svg>